<svg width="26" height="17" viewBox="0 0 26 17" fill="none" xmlns="http://www.w3.org/2000/svg">
<path fill-rule="evenodd" clip-rule="evenodd" d="M25.2492 0.5L17.1925 16.25H9.625L12.9967 9.7225H12.8454C10.0638 13.3335 5.91351 15.7106 0 16.25V9.81289C0 9.81289 3.78302 9.58941 6.00695 7.25128H0V0.500124H6.75116V6.05285L6.90268 6.05223L9.66149 0.500124H14.7672V6.01764L14.9187 6.0174L17.781 0.5H25.2492Z" fill="black"/>
<path d="M25.2492 0.5L17.1925 16.25H9.625L12.9967 9.7225H12.8454C10.0638 13.3335 5.91351 15.7106 0 16.25V9.81289C0 9.81289 3.78302 9.58941 6.00695 7.25128H0V0.500124H6.75116V6.05285L6.90268 6.05223L9.66149 0.500124H14.7672V6.01764L14.9187 6.0174L17.781 0.5H25.2492Z" fill="black"/>
<path fill-rule="evenodd" clip-rule="evenodd" d="M25.2492 0.5L17.1925 16.25H9.625L12.9967 9.7225H12.8454C10.0638 13.3335 5.91351 15.7106 0 16.25V9.81289C0 9.81289 3.78302 9.58941 6.00695 7.25128H0V0.500124H6.75116V6.05285L6.90268 6.05223L9.66149 0.500124H14.7672V6.01764L14.9187 6.0174L17.781 0.5H25.2492Z" fill="black"/>
<path d="M25.2492 0.5L17.1925 16.25H9.625L12.9967 9.7225H12.8454C10.0638 13.3335 5.91351 15.7106 0 16.25V9.81289C0 9.81289 3.78302 9.58941 6.00695 7.25128H0V0.500124H6.75116V6.05285L6.90268 6.05223L9.66149 0.500124H14.7672V6.01764L14.9187 6.0174L17.781 0.5H25.2492Z" fill="black"/>
<path fill-rule="evenodd" clip-rule="evenodd" d="M25.2492 0.5L17.1925 16.25H9.625L12.9967 9.7225H12.8454C10.0638 13.3335 5.91351 15.7106 0 16.25V9.81289C0 9.81289 3.78302 9.58941 6.00695 7.25128H0V0.500124H6.75116V6.05285L6.90268 6.05223L9.66149 0.500124H14.7672V6.01764L14.9187 6.0174L17.781 0.5H25.2492Z" fill="black"/>
<path d="M25.2492 0.5L17.1925 16.25H9.625L12.9967 9.7225H12.8454C10.0638 13.3335 5.91351 15.7106 0 16.25V9.81289C0 9.81289 3.78302 9.58941 6.00695 7.25128H0V0.500124H6.75116V6.05285L6.90268 6.05223L9.66149 0.500124H14.7672V6.01764L14.9187 6.0174L17.781 0.5H25.2492Z" fill="black"/>
<path fill-rule="evenodd" clip-rule="evenodd" d="M25.2492 0.5L17.1925 16.25H9.625L12.9967 9.7225H12.8454C10.0638 13.3335 5.91351 15.7106 0 16.25V9.81289C0 9.81289 3.78302 9.58941 6.00695 7.25128H0V0.500124H6.75116V6.05285L6.90268 6.05223L9.66149 0.500124H14.7672V6.01764L14.9187 6.0174L17.781 0.5H25.2492Z" fill="black"/>
<path d="M25.2492 0.5L17.1925 16.25H9.625L12.9967 9.7225H12.8454C10.0638 13.3335 5.91351 15.7106 0 16.25V9.81289C0 9.81289 3.78302 9.58941 6.00695 7.25128H0V0.500124H6.75116V6.05285L6.90268 6.05223L9.66149 0.500124H14.7672V6.01764L14.9187 6.0174L17.781 0.5H25.2492Z" fill="black"/>
</svg>
